#!OML:ASF H:\Terrain\Patient Classification 1\Animal2\Wednesday\Animal2.ASF
:FULLY-SPECIFIED
:DEGREES
2902
root 11.725 13.91 -14.6348 17.2491 -49.3787 -13.7865
lowerback 18.7692 -1.87832 -4.79356
upperback -0.426985 -3.9761 -3.36581
thorax -10.97 -1.73481 0.122902
lowerneck 0.12933 -1.88002 9.50402
upperneck -14.8721 -5.12195 -19.0208
head -5.07681 -2.17504 -7.4692
rclavicle 6.36111e-015 3.18055e-014
rhumerus 16.8244 -7.96542 1.98808
rradius 138.828
rwrist 28.1571
rhand -15.577 38.9873
rfingers 7.12502
rthumb 10.6082 9.27509
lclavicle 6.36111e-015 3.18055e-014
lhumerus 18.8058 24.5892 -8.01118
lradius 121.736
lwrist 38.0633
lhand -28.2195 7.21736
lfingers 7.12502
lthumb -1.59792 37.1911
rfemur -46.7365 -14.638 5.68497
rtibia 71.185
rfoot -28.1018 -6.0989
rtoes -38.5077
lfemur -52.0813 34.848 9.46387
ltibia 80.0023
lfoot -26.2661 -11.3311
ltoes -36.8937
2903
root 11.7226 13.9651 -14.5725 16.7019 -49.4941 -13.4129
lowerback 18.6882 -1.95301 -4.94944
upperback -0.523657 -4.11598 -3.41876
thorax -11.0229 -1.79146 0.188255
lowerneck 0.452125 -1.93502 9.24678
upperneck -15.339 -5.25419 -18.8681
head -5.2887 -2.20538 -7.37249
rclavicle -7.39479e-014 1.27222e-014
rhumerus 16.6032 -9.96879 2.15006
rradius 139.26
rwrist 26.3448
rhand -15.5145 42.0828
rfingers 7.12502
rthumb 10.6685 12.3736
lclavicle -7.39479e-014 1.27222e-014
lhumerus 18.7242 22.8837 -8.90755
lradius 122.136
lwrist 36.1169
lhand -24.2731 7.41758
lfingers 7.12502
lthumb 2.21362 37.3858
rfemur -45.7908 -14.0971 5.13124
rtibia 70.4428
rfoot -27.7978 -6.67577
rtoes -38.9886
lfemur -51.2865 34.4115 9.22155
ltibia 79.7149
lfoot -26.2416 -11.5393
ltoes -35.3534
2904
root 11.7171 14.0201 -14.5142 16.2643 -49.7024 -13.1896
lowerback 18.5715 -1.94805 -5.05949
upperback -0.602845 -4.14718 -3.55048
thorax -11.0488 -1.80417 0.110107
lowerneck 0.413424 -2.05359 9.21401
upperneck -15.3172 -5.40294 -18.7471
head -5.29558 -2.28457 -7.31609
rclavicle -4.57205e-014 -6.36111e-015
rhumerus 16.2365 -12.0459 2.21046
rradius 139.331
rwrist 24.8469
rhand -16.4049 44.5128
rfingers 7.12502
rthumb 9.80956 14.7613
lclavicle -4.57205e-014 -6.36111e-015
lhumerus 19.3913 21.6611 -8.9343
lradius 122.726
lwrist 34.1876
lhand -19.5198 8.07942
lfingers 7.12502
lthumb 6.8034 37.9501
rfemur -44.8593 -13.5127 4.69257
rtibia 69.6129
rfoot -27.5425 -6.71347
rtoes -38.7297
lfemur -50.3488 34.1445 9.11084
ltibia 79.3745
lfoot -26.2624 -11.6752
ltoes -33.9119
2905
root 11.7067 14.0706 -14.4578 16.1285 -49.827 -13.413
lowerback 18.3472 -1.9667 -5.00082
upperback -0.597814 -4.15061 -3.62565
thorax -10.9252 -1.81632 -0.01303
lowerneck 0.469875 -2.07604 9.57665
upperneck -15.4858 -5.45911 -18.8738
head -5.37575 -2.31871 -7.42772
rclavicle 2.18663e-014 3.49861e-014
rhumerus 16.0927 -14.0874 2.08674
rradius 138.913
rwrist 24.0077
rhand -17.4431 45.6898
rfingers 7.12502
rthumb 8.80776 15.8936
lclavicle 2.18663e-014 3.49861e-014
lhumerus 18.8472 20.1363 -10.7711
lradius 122.527
lwrist 33.4175
lhand -15.6271 7.51137
lfingers 7.12502
lthumb 10.5599 37.2261
rfemur -43.8028 -12.7664 4.57821
rtibia 68.701
rfoot -27.3292 -6.93983
rtoes -38.5664
lfemur -49.3701 33.9637 9.39308
ltibia 79.0146
lfoot -26.5351 -11.4419
ltoes -34.1185
2906
root 11.6958 14.1202 -14.3898 15.7243 -49.9202 -13.4263
lowerback 18.1337 -2.06607 -4.95269
upperback -0.59919 -4.27554 -3.78678
thorax -10.8189 -1.88792 -0.191496
lowerneck 0.60179 -1.99947 9.91358
upperneck -15.6453 -5.35426 -18.9254
head -5.4393 -2.2726 -7.51701
rclavicle 8.62725e-014 1.27222e-014
rhumerus 16.1405 -15.9338 1.867
rradius 138.168
rwrist 23.98
rhand -19.0311 46.1136
rfingers 7.12502
rthumb 7.27514 16.2587
lclavicle 8.62725e-014 1.27222e-014
lhumerus 19.0351 19.1424 -11.6513
lradius 122.553
lwrist 32.8562
lhand -9.90574 7.73404
lfingers 7.12502
lthumb 16.0744 37.0873
rfemur -42.5743 -12.1614 4.29771
rtibia 67.7974
rfoot -27.0883 -7.5104
rtoes -39.1854
lfemur -48.2646 33.6063 9.56628
ltibia 78.6616
lfoot -26.8406 -11.3353
ltoes -33.9421
2907
root 11.6906 14.1788 -14.317 15.3191 -50.1182 -13.257
lowerback 17.8878 -2.13759 -4.93887
upperback -0.786817 -4.38622 -3.98449
thorax -10.9061 -1.94573 -0.394649
lowerneck 0.882838 -2.0158 9.7155
upperneck -15.6458 -5.31355 -18.6145
head -5.47432 -2.24066 -7.37195
rclavicle 1.03368e-014 -4.13472e-014
rhumerus 16.0812 -17.7071 1.85734
rradius 137.406
rwrist 24.4876
rhand -21.0523 45.734
rfingers 7.12502
rthumb 5.32382 15.8208
lclavicle 1.03368e-014 -4.13472e-014
lhumerus 19.3727 18.2125 -12.4323
lradius 122.554
lwrist 32.2903
lhand -3.92003 8.23282
lfingers 7.12502
lthumb 21.8308 37.0214
rfemur -41.5313 -11.6332 3.93488
rtibia 66.8079
rfoot -26.7533 -8.09441
rtoes -39.7052
lfemur -47.2865 33.2872 9.45505
ltibia 78.303
lfoot -27.091 -11.1483
ltoes -33.5794
2908
root 11.6899 14.2031 -14.2515 15.4214 -50.2401 -13.6644
lowerback 17.6584 -2.20259 -4.71618
upperback -0.969677 -4.41909 -3.98434
thorax -10.996 -1.97061 -0.518345
lowerneck 1.24424 -2.10506 9.44902
upperneck -15.8721 -5.43537 -18.3965
head -5.61815 -2.27186 -7.24369
rclavicle 8.34896e-014 3.18055e-014
rhumerus 16.2434 -19.4875 1.84835
rradius 136.469
rwrist 25.1098
rhand -22.7342 46.2706
rfingers 7.12502
rthumb 3.69974 16.3229
lclavicle 8.34896e-014 3.18055e-014
lhumerus 19.6196 17.5185 -13.2361
lradius 122.323
lwrist 32.0436
lhand 1.74014 9.07393
lfingers 7.12502
lthumb 27.256 37.1244
rfemur -40.7277 -10.9301 3.95318
rtibia 65.9215
rfoot -26.5182 -8.11232
rtoes -38.9466
lfemur -46.6128 33.1293 9.81146
ltibia 78.1402
lfoot -27.307 -10.8659
ltoes -33.8042
2909
root 11.6933 14.2723 -14.1834 15.4884 -50.2783 -14.0832
lowerback 17.4378 -2.24076 -4.51868
upperback -1.04975 -4.41631 -3.98508
thorax -10.9738 -1.98127 -0.638762
lowerneck 1.23043 -2.13814 9.57874
upperneck -15.8036 -5.48806 -18.5451
head -5.60879 -2.29954 -7.31403
rclavicle 2.18663e-014 6.67916e-014
rhumerus 16.4482 -20.994 1.74104
rradius 135.237
rwrist 25.9821
rhand -24.5078 47.3457
rfingers 7.12502
rthumb 1.98698 17.3752
lclavicle 2.18663e-014 6.67916e-014
lhumerus 20.2033 17.2369 -13.5093
lradius 122
lwrist 32.2191
lhand 8.41667 10.257
lfingers 7.12502
lthumb 33.6231 37.1236
rfemur -39.6465 -10.245 4.06021
rtibia 64.8013
rfoot -26.1407 -8.21788
rtoes -38.6137
lfemur -45.7234 32.7546 10.1103
ltibia 77.7294
lfoot -27.4588 -10.8604
ltoes -33.0905
2910
root 11.6937 14.3421 -14.1146 15.1056 -50.4527 -13.8572
lowerback 17.1008 -2.24784 -4.79463
upperback -1.09065 -4.48839 -4.20173
thorax -10.8248 -2.01313 -0.715606
lowerneck 1.00478 -2.05919 9.92773
upperneck -15.5444 -5.33906 -18.6577
head -5.4752 -2.25751 -7.42027
rclavicle 1.06549e-013 5.40694e-014
rhumerus 16.5003 -22.7097 1.56535
rradius 134.086
rwrist 26.3638
rhand -25.765 47.4077
rfingers 7.12502
rthumb 0.772726 17.4293
lclavicle 1.06549e-013 5.40694e-014
lhumerus 21.1482 17.208 -13.7923
lradius 121.582
lwrist 32.9549
lhand 15.7822 12.3855
lfingers 7.12502
lthumb 40.5874 37.4316
rfemur -38.6439 -9.66972 3.69845
rtibia 63.6688
rfoot -25.7085 -8.56858
rtoes -38.7126
lfemur -44.809 32.3366 9.89083
ltibia 77.28
lfoot -27.8063 -10.8057
ltoes -32.3244
2911
root 11.6939 14.4168 -14.046 14.9703 -50.7725 -13.7606
lowerback 16.6616 -2.27704 -5.15039
upperback -1.22685 -4.59835 -4.38815
thorax -10.7145 -2.05578 -0.709171
lowerneck 1.10742 -2.06415 10.1862
upperneck -15.6731 -5.34512 -18.6739
head -5.53972 -2.26584 -7.47593
rclavicle 2.54444e-014 1.59028e-014
rhumerus 16.8043 -24.661 1.22327
rradius 132.899
rwrist 26.4575
rhand -27.0703 47.0357
rfingers 7.12502
rthumb -0.488018 17.0565
lclavicle 2.54444e-014 1.59028e-014
lhumerus 21.4893 17.4712 -14.4168
lradius 121.5
lwrist 34.7725
lhand 23.0519 16.2962
lfingers 7.12502
lthumb 47.3668 38.7991
rfemur -37.7736 -8.88873 3.41471
rtibia 62.3946
rfoot -25.3988 -8.6024
rtoes -38.0599
lfemur -43.8911 32.1038 9.67312
ltibia 76.7061
lfoot -28.0841 -10.6058
ltoes -31.6672
2912
root 11.6996 14.4977 -13.9731 15.2151 -51.0406 -14.0441
lowerback 16.2435 -2.29576 -5.24154
upperback -1.50444 -4.63015 -4.40929
thorax -10.7797 -2.06368 -0.688777
lowerneck 1.20076 -2.15619 10.0633
upperneck -15.5349 -5.45667 -18.6862
head -5.53034 -2.31073 -7.44596
rclavicle -4.37326e-014 -5.40694e-014
rhumerus 17.3248 -26.1737 0.958561
rradius 131.472
rwrist 27.0269
rhand -28.3664 46.502
rfingers 7.12502
rthumb -1.73982 16.5294
lclavicle -4.37326e-014 -5.40694e-014
lhumerus 22.233 17.6101 -14.5658
lradius 120.748
lwrist 36.7984
lhand 29.846 20.9629
lfingers 7.12502
lthumb 53.5684 40.0886
rfemur -36.9299 -8.0434 3.42068
rtibia 61.0206
rfoot -24.8902 -8.74091
rtoes -37.8553
lfemur -43.1372 31.8626 9.62214
ltibia 76.0916
lfoot -27.8777 -10.352
ltoes -31.2545
2913
root 11.7002 14.5772 -13.8962 15.2805 -51.1144 -14.4614
lowerback 15.9435 -2.37785 -5.1484
upperback -1.59031 -4.71417 -4.5064
thorax -10.7175 -2.11518 -0.837986
lowerneck 0.950238 -2.10763 10.1618
upperneck -15.1757 -5.32531 -18.624
head -5.35622 -2.275 -7.44169
rclavicle 7.35503e-015 6.67916e-014
rhumerus 17.7368 -27.3645 0.650707
rradius 130.014
rwrist 27.6519
rhand -29.0717 45.9254
rfingers 7.12502
rthumb -2.421 15.9594
lclavicle 7.35503e-015 6.67916e-014
lhumerus 23.0257 17.8786 -14.7973
lradius 119.924
lwrist 38.6705
lhand 35.7021 26.0729
lfingers 7.12502
lthumb 58.7471 41.1045
rfemur -35.6941 -7.33057 3.55868
rtibia 59.5971
rfoot -24.0478 -9.23766
rtoes -38.2712
lfemur -42.157 31.4661 9.83265
ltibia 75.4252
lfoot -27.8053 -9.95357
ltoes -31.1597
2914
root 11.6971 14.6565 -13.8207 15.1455 -51.1755 -14.8962
lowerback 15.832 -2.45257 -5.21312
upperback -1.5866 -4.82787 -4.59792
thorax -10.6513 -2.17141 -0.878751
lowerneck 0.81027 -2.04801 10.4619
upperneck -15.0845 -5.2007 -18.5445
head -5.28853 -2.24251 -7.47469
rclavicle -4.23411e-014 -1.90833e-014
rhumerus 18.0703 -28.4952 0.321097
rradius 128.687
rwrist 27.844
rhand -29.5937 45.356
rfingers 7.12502
rthumb -2.92506 15.3963
lclavicle -4.23411e-014 -1.90833e-014
lhumerus 23.8494 18.2762 -15.1486
lradius 118.772
lwrist 40.5742
lhand 40.7078 30.6123
lfingers 7.12502
lthumb 62.9793 40.831
rfemur -34.2391 -6.67457 3.72163
rtibia 58.139
rfoot -23.138 -9.57278
rtoes -38.5045
lfemur -40.8286 31.0295 10.2147
ltibia 74.6808
lfoot -27.9551 -9.76029
ltoes -30.111
2915
root 11.6965 14.7407 -13.7482 15.1911 -51.4276 -15.3376
lowerback 15.6002 -2.45327 -5.49952
upperback -1.71176 -4.869 -4.55857
thorax -10.63 -2.17246 -0.675708
lowerneck 0.926221 -2.06697 10.2551
upperneck -15.1153 -5.19533 -18.2921
head -5.3092 -2.23406 -7.34942
rclavicle -1.45113e-014 2.22639e-014
rhumerus 18.6695 -29.641 -0.00342606
rradius 127.217
rwrist 27.7775
rhand -30.2246 45.0765
rfingers 7.12502
rthumb -3.5344 15.1261
lclavicle -1.45113e-014 2.22639e-014
lhumerus 24.5594 18.694 -15.3584
lradius 117.338
lwrist 42.6033
lhand 44.7042 33.4977
lfingers 7.12502
lthumb 66.1606 38.6157
rfemur -33.0554 -5.96413 3.85909
rtibia 56.6473
rfoot -22.1941 -9.74086
rtoes -38.9586
lfemur -39.5105 30.7193 10.5043
ltibia 73.8824
lfoot -28.1267 -9.23239
ltoes -30.4274
2916
root 11.6951 14.8274 -13.6712 15.4505 -51.7264 -16.1058
lowerback 15.2043 -2.53929 -5.52411
upperback -1.68605 -4.9544 -4.59583
thorax -10.3713 -2.22172 -0.70051
lowerneck 0.82536 -1.97407 10.0849
upperneck -15.1429 -5.02522 -17.9063
head -5.26266 -2.1653 -7.19635
rclavicle 4.90998e-014 -2.22639e-014
rhumerus 19.4219 -30.7131 -0.694114
rradius 125.504
rwrist 27.7199
rhand -31.3011 45.3315
rfingers 7.12502
rthumb -4.57389 15.4009
lclavicle 4.90998e-014 -2.22639e-014
lhumerus 25.6144 19.4918 -15.143
lradius 116.159
lwrist 44.3069
lhand 47.5375 38.0203
lfingers 7.12502
lthumb 68.2631 38.6108
rfemur -31.8182 -5.11153 4.17164
rtibia 55.1451
rfoot -21.2207 -9.62395
rtoes -38.9671
lfemur -38.0494 30.4744 11.0667
ltibia 73.0396
lfoot -28.249 -8.83853
ltoes -30.8885
